<?xml version="1.0" standalone="no"?>
<!DOCTYPE svg PUBLIC "-//W3C//DTD SVG 20010904//EN"
 "http://www.w3.org/TR/2001/REC-SVG-20010904/DTD/svg10.dtd">
<svg version="1.0" xmlns="http://www.w3.org/2000/svg"
 width="1500.000000pt" height="891.000000pt" viewBox="0 0 1500.000000 891.000000"
 preserveAspectRatio="xMidYMid meet">
<g transform="translate(0.000000,891.000000) scale(0.100000,-0.100000)"
fill="#000000" stroke="none">
<path d="M7137 7389 c-971 -94 -1822 -660 -2285 -1522 -145 -268 -259 -617
-307 -934 -87 -575 11 -1188 273 -1711 404 -805 1158 -1378 2034 -1547 69 -13
154 -27 189 -30 35 -4 75 -9 89 -11 14 -2 95 -7 180 -10 580 -24 1197 152
1690 481 182 121 276 200 451 374 448 449 713 982 816 1641 25 161 25 616 0
776 -74 489 -242 914 -508 1285 -107 151 -201 259 -356 409 -476 463 -1079
738 -1753 799 -132 13 -385 12 -513 0z m553 -94 c655 -70 1226 -342 1691 -805
451 -450 721 -1005 804 -1655 19 -150 14 -579 -9 -725 -98 -619 -367 -1153
-796 -1580 -220 -219 -455 -387 -733 -524 -354 -175 -668 -260 -1061 -288
-812 -57 -1626 257 -2191 843 -432 449 -688 981 -771 1604 -24 176 -24 523 0
694 87 630 340 1156 771 1600 344 355 768 609 1248 747 139 40 349 80 487 93
152 13 414 12 560 -4z"/>
<path d="M7185 7163 c-556 -52 -1050 -253 -1470 -598 -122 -101 -318 -300
-407 -415 -643 -831 -745 -1941 -262 -2870 379 -729 1092 -1249 1904 -1389
320 -56 707 -48 1015 20 503 111 953 357 1315 719 210 209 370 431 499 690
193 388 280 757 281 1185 0 256 -24 444 -86 683 -93 360 -267 703 -507 1002
-91 113 -319 335 -434 423 -394 300 -858 488 -1335 541 -113 13 -419 18 -513
9z m575 -47 c296 -44 555 -124 810 -250 726 -361 1249 -1042 1409 -1834 77
-377 65 -805 -33 -1183 -120 -466 -362 -879 -717 -1224 -439 -426 -990 -678
-1604 -734 -148 -14 -432 -5 -592 19 -287 42 -525 116 -788 244 -811 398
-1365 1189 -1455 2079 -18 174 -8 548 19 703 146 851 681 1568 1446 1939 282
136 554 213 900 254 114 14 476 5 605 -13z"/>
<path d="M7223 6875 c-120 -37 -227 -143 -303 -298 -44 -90 -61 -140 -112
-330 -12 -44 -18 -51 -68 -77 -425 -218 -518 -276 -641 -400 -115 -115 -161
-205 -167 -328 -4 -77 -2 -87 27 -147 70 -143 248 -253 586 -364 l180 -60 7
-103 c3 -57 9 -148 12 -203 l7 -100 -103 -75 c-455 -331 -795 -699 -923 -997
-79 -183 -112 -386 -85 -518 47 -232 244 -385 496 -385 192 0 390 92 539 251
93 98 146 191 195 337 74 222 83 451 34 907 -22 208 -33 335 -34 381 l0 41
216 143 c119 78 223 144 232 147 10 2 64 -12 122 -32 332 -116 432 -252 332
-452 -17 -33 -28 -63 -25 -67 4 -3 18 -6 32 -6 20 0 36 13 65 53 51 69 69 112
69 172 2 142 -118 240 -472 386 l-24 10 34 21 c19 12 119 70 223 129 l189 108
58 -53 c88 -81 229 -185 436 -318 381 -245 454 -298 576 -417 117 -113 195
-240 226 -366 7 -27 13 -93 13 -147 0 -186 -81 -349 -261 -528 -242 -241 -574
-394 -929 -430 -157 -15 -281 4 -395 61 -241 122 -270 405 -81 795 80 165 172
297 229 330 24 13 11 34 -21 34 -40 0 -76 -24 -145 -97 -115 -122 -223 -308
-278 -478 -35 -107 -38 -120 -46 -206 -19 -193 75 -352 267 -448 98 -48 169
-68 297 -81 299 -32 738 91 1042 292 109 73 296 253 354 343 206 316 172 646
-94 928 -128 136 -256 232 -580 435 -119 74 -260 166 -314 205 -97 69 -247
201 -237 209 3 3 64 40 135 83 470 284 743 523 856 750 68 137 72 243 13 364
-102 208 -341 318 -629 289 -306 -30 -597 -220 -720 -471 -63 -129 -86 -225
-86 -367 0 -214 61 -398 186 -564 24 -33 43 -61 42 -62 -1 -2 -56 -33 -122
-70 -66 -36 -180 -102 -253 -146 l-134 -80 -191 52 c-106 28 -201 54 -211 57
-18 5 -19 15 -12 252 4 135 9 269 11 296 3 28 9 115 15 195 11 156 21 240 47
393 l16 97 91 52 c136 77 201 123 282 200 89 85 128 142 154 226 34 109 21
229 -26 251 -33 15 -169 13 -221 -4z m117 -121 c0 -57 -33 -155 -71 -210 -16
-24 -59 -70 -97 -104 -71 -65 -192 -147 -192 -131 0 6 12 47 26 93 48 152 130
292 204 346 39 30 112 62 122 56 4 -3 8 -25 8 -50z m1302 -311 c84 -39 160
-114 195 -189 73 -160 -7 -367 -218 -568 -134 -128 -358 -291 -614 -448 l-110
-67 -17 22 c-38 50 -98 167 -122 237 -82 247 -53 498 80 700 81 124 178 209
311 273 127 61 200 77 323 74 94 -2 112 -6 172 -34z m-1886 -519 c-8 -71 -18
-149 -21 -174 -3 -25 -9 -213 -12 -417 -3 -205 -7 -373 -8 -373 -2 0 -68 21
-147 46 -247 79 -387 161 -457 268 -23 37 -26 51 -26 131 0 83 3 96 34 160 45
90 152 198 286 287 100 67 356 210 362 204 2 -2 -3 -61 -11 -132z m347 -1155
l67 -20 -151 -100 c-83 -55 -153 -98 -156 -96 -2 3 -7 68 -10 146 l-6 140 94
-25 c52 -14 124 -34 162 -45z m-335 -481 c1 -18 11 -109 22 -203 82 -714 19
-1054 -245 -1320 -102 -103 -203 -163 -321 -191 -261 -61 -454 115 -454 416 0
375 269 759 869 1239 63 50 117 91 121 91 3 0 7 -15 8 -32z"/>
</g>
</svg>
